<svg class="diagram-root" style="background: #f5f6f6" xmlns="http://www.w3.org/2000/svg" xmlns:xlink="http://www.w3.org/1999/xlink"><style>.diagram-root { font-family: "Helvetica Neue", sans-serif; font-size: 12px; } .t { overflow: visible; } .t-bg { y: 40; fill: #fff;   } .th { fill: #005aa0;   } .tht { fill: #fff; font-size: 14px;  } .tf { fill: #323c46; overflow: visible; } .tf.pk { fill: #005aa0; font-weight: bold; } .tf.fk { font-weight: bold; } .ty { fill: #adb1b5; font-weight: normal; text-anchor: end; } .r { fill: transparent; stroke: #c3c3c3; stroke-width: 1; } .l { stroke: 1; } .i { fill: #c2c7ce; stroke: #c2c7ce; } .i.ix { fill: #afb3b6; stroke: #000; } .fa { fill: transparent; overflow: visible; } .fa .bg.hover { fill: #f7f7f7; } .c { cy: 12; r: 4; stroke: #d2d2dc; fill: #d2d2dc; } .hr { fill: transparent; stroke: #323c46; stroke-opacity: 0.035; stroke-width: 13; } .dc { stroke: #fa5a3c; fill: #fa5a3c; } .x { stroke: white; stroke-width: 1; } .hl .th { fill: #1b9bff; } .hl .tht {  } .fhl .bg { fill: #e7f4ff; } .fhls .bg {  } .r.hl { stroke: #1b9bff; } .dim { opacity: 0.25; }</style><g class="drawing-wrapper" transform="translate(8, 18) scale(1,1)"><g class="rs"><path d="M 181.13 224 m -1, 0 a 1,1 0 1,0 2,0 a 1,1 0 1,0 -2,0 M 181.13 224 m -0.5, 0 a 0.5,0.5 0 1,0 1,0 a 0.5,0.5 0 1,0 -1,0  M181.13 224 L181.13 224 193.13 224 M187.13 230 L187.13 230 187.13 218 M193.13 224 Q 280.6 224, 368.07 155.5 T 543 87 M 555 87 m -1, 0 a 1,1 0 1,0 2,0 a 1,1 0 1,0 -2,0 M 555 87 m -0.5, 0 a 0.5,0.5 0 1,0 1,0 a 0.5,0.5 0 1,0 -1,0  M555 87 L555 87 543 87 M549 93 L549 93 549 81" id="h1139284389" class="r"></path><path d="M 181.13 249 m -1, 0 a 1,1 0 1,0 2,0 a 1,1 0 1,0 -2,0 M 181.13 249 m -0.5, 0 a 0.5,0.5 0 1,0 1,0 a 0.5,0.5 0 1,0 -1,0  M181.13 249 L181.13 249 193.13 249 M 181.13 255 m -1, 0 a 1,1 0 1,0 2,0 a 1,1 0 1,0 -2,0 M 181.13 255 m -0.5, 0 a 0.5,0.5 0 1,0 1,0 a 0.5,0.5 0 1,0 -1,0  M181.13 255 L181.13 255 188.13 249 181.13 243 M 181.13 243 m -1, 0 a 1,1 0 1,0 2,0 a 1,1 0 1,0 -2,0 M 181.13 243 m -0.5, 0 a 0.5,0.5 0 1,0 1,0 a 0.5,0.5 0 1,0 -1,0  M193.13 249 Q 234.6 249, 276.07 431 T 359 613 M 371 613 m -1, 0 a 1,1 0 1,0 2,0 a 1,1 0 1,0 -2,0 M 371 613 m -0.5, 0 a 0.5,0.5 0 1,0 1,0 a 0.5,0.5 0 1,0 -1,0  M371 613 L371 613 359 613 M365 619 L365 619 365 607" id="h1607168654" class="r"></path><path d="M 537 468 m -1, 0 a 1,1 0 1,0 2,0 a 1,1 0 1,0 -2,0 M 537 468 m -0.5, 0 a 0.5,0.5 0 1,0 1,0 a 0.5,0.5 0 1,0 -1,0  M537 468 L537 468 525 468 M531 474 L531 474 531 462 M525 468 Q 442.04 468, 359.07 358.5 T 193.13 249 M 181.13 249 m -1, 0 a 1,1 0 1,0 2,0 a 1,1 0 1,0 -2,0 M 181.13 249 m -0.5, 0 a 0.5,0.5 0 1,0 1,0 a 0.5,0.5 0 1,0 -1,0  M181.13 249 L181.13 249 193.13 249 M 181.13 255 m -1, 0 a 1,1 0 1,0 2,0 a 1,1 0 1,0 -2,0 M 181.13 255 m -0.5, 0 a 0.5,0.5 0 1,0 1,0 a 0.5,0.5 0 1,0 -1,0  M181.13 255 L181.13 255 188.13 249 181.13 243 M 181.13 243 m -1, 0 a 1,1 0 1,0 2,0 a 1,1 0 1,0 -2,0 M 181.13 243 m -0.5, 0 a 0.5,0.5 0 1,0 1,0 a 0.5,0.5 0 1,0 -1,0 " id="h3335357949" class="r"></path><path d="M 537 493 m -1, 0 a 1,1 0 1,0 2,0 a 1,1 0 1,0 -2,0 M 537 493 m -0.5, 0 a 0.5,0.5 0 1,0 1,0 a 0.5,0.5 0 1,0 -1,0  M537 493 L537 493 525 493 M531 499 L531 499 531 487 M525 493 C 475 493, 464.2 87, 543 87 M 555 87 m -1, 0 a 1,1 0 1,0 2,0 a 1,1 0 1,0 -2,0 M 555 87 m -0.5, 0 a 0.5,0.5 0 1,0 1,0 a 0.5,0.5 0 1,0 -1,0  M555 87 L555 87 543 87 M549 93 L549 93 549 81" id="h2286254435" class="r"></path><path d="M 723.47 112 m -1, 0 a 1,1 0 1,0 2,0 a 1,1 0 1,0 -2,0 M 723.47 112 m -0.5, 0 a 0.5,0.5 0 1,0 1,0 a 0.5,0.5 0 1,0 -1,0  M723.47 112 L723.47 112 735.47 112 M729.47 118 L729.47 118 729.47 106 M735.47 112 Q 763.61 112, 791.74 238 T 848 364 M 860 364 m -1, 0 a 1,1 0 1,0 2,0 a 1,1 0 1,0 -2,0 M 860 364 m -0.5, 0 a 0.5,0.5 0 1,0 1,0 a 0.5,0.5 0 1,0 -1,0  M860 364 L860 364 848 364 M854 370 L854 370 854 358" id="h1537058300" class="r"></path><path d="M 951 84 m -1, 0 a 1,1 0 1,0 2,0 a 1,1 0 1,0 -2,0 M 951 84 m -0.5, 0 a 0.5,0.5 0 1,0 1,0 a 0.5,0.5 0 1,0 -1,0  M951 84 L951 84 939 84 M945 90 L945 90 945 78 M939 84 Q 888.12 84, 837.24 85.5 T 735.47 87 M 723.47 87 m -1, 0 a 1,1 0 1,0 2,0 a 1,1 0 1,0 -2,0 M 723.47 87 m -0.5, 0 a 0.5,0.5 0 1,0 1,0 a 0.5,0.5 0 1,0 -1,0  M723.47 87 L723.47 87 735.47 87 M729.47 93 L729.47 93 729.47 81" id="h3177548053" class="r"></path></g><g class="hrs"></g><g class="ts"><svg width="168.47" height="225" x="555" y="30" id="h1639608377" class="t"><rect height="40" width="168.47" class="th"></rect><text x="13" y="25" class="tht">employees</text><rect height="185" width="168.47" class="t-bg" y="40"></rect><text x="13" y="61" class="tf pk">emp_no<tspan x="155.47" class="ty">INT</tspan></text><path d="M7,14A2,2 0 0,1 5,12A2,2 0 0,1 7,10A2,2 0 0,1 9,12A2,2 0 0,1 7,14M12.65,10C11.83,7.67 9.61,6 7, 6A6, 6 0 0, 0 1, 12A6, 6 0 0, 0 7, 18C9.61, 18 11.83, 16.33 12.65, 14H17V18H21V14H23V10H12.65Z" class="i pk" transform="translate(116.13666603088379, 48) scale(0.65)"></path><text x="13" y="86" class="tf fk">emp_title_id<tspan x="155.47" class="ty">VARCHAR</tspan></text><text x="13" y="111" class="tf">birth_date<tspan x="155.47" class="ty">DATE</tspan></text><text x="13" y="136" class="tf">first_name<tspan x="155.47" class="ty">VARCHAR</tspan></text><text x="13" y="161" class="tf">last_name<tspan x="155.47" class="ty">VARCHAR</tspan></text><text x="13" y="186" class="tf">sex<tspan x="155.47" class="ty">VARCHAR</tspan></text><text x="13" y="211" class="tf">hire_date<tspan x="155.47" class="ty">DATE</tspan></text></svg><svg width="167.13" height="100" x="14" y="167" id="h1090417462" class="t"><rect height="40" width="167.13" class="th"></rect><text x="13" y="25" class="tht">dept_emp</text><rect height="60" width="167.13" class="t-bg" y="40"></rect><text x="13" y="61" class="tf pk">emp_no<tspan x="154.13" class="ty">INT</tspan></text><path d="M7,14A2,2 0 0,1 5,12A2,2 0 0,1 7,10A2,2 0 0,1 9,12A2,2 0 0,1 7,14M12.65,10C11.83,7.67 9.61,6 7, 6A6, 6 0 0, 0 1, 12A6, 6 0 0, 0 7, 18C9.61, 18 11.83, 16.33 12.65, 14H17V18H21V14H23V10H12.65Z" class="i pk" transform="translate(114.79666603088378, 48) scale(0.65)"></path><text x="13" y="86" class="tf pk">dept_no<tspan x="154.13" class="ty">VARCHAR</tspan></text><path d="M7,14A2,2 0 0,1 5,12A2,2 0 0,1 7,10A2,2 0 0,1 9,12A2,2 0 0,1 7,14M12.65,10C11.83,7.67 9.61,6 7, 6A6, 6 0 0, 0 1, 12A6, 6 0 0, 0 7, 18C9.61, 18 11.83, 16.33 12.65, 14H17V18H21V14H23V10H12.65Z" class="i pk" transform="translate(76.33000076293945, 73) scale(0.65)"></path></svg><svg width="167.13" height="100" x="371" y="556" id="h475896179" class="t"><rect height="40" width="167.13" class="th"></rect><text x="13" y="25" class="tht">departments</text><rect height="60" width="167.13" class="t-bg" y="40"></rect><text x="13" y="61" class="tf pk">dept_no<tspan x="154.13" class="ty">VARCHAR</tspan></text><path d="M7,14A2,2 0 0,1 5,12A2,2 0 0,1 7,10A2,2 0 0,1 9,12A2,2 0 0,1 7,14M12.65,10C11.83,7.67 9.61,6 7, 6A6, 6 0 0, 0 1, 12A6, 6 0 0, 0 7, 18C9.61, 18 11.83, 16.33 12.65, 14H17V18H21V14H23V10H12.65Z" class="i pk" transform="translate(76.33000076293945, 48) scale(0.65)"></path><text x="13" y="86" class="tf">dept_name<tspan x="154.13" class="ty">VARCHAR</tspan></text></svg><svg width="167.13" height="100" x="537" y="411" id="h1676682957" class="t"><rect height="40" width="167.13" class="th"></rect><text x="13" y="25" class="tht">dept_manager</text><rect height="60" width="167.13" class="t-bg" y="40"></rect><text x="13" y="61" class="tf pk">dept_no<tspan x="154.13" class="ty">VARCHAR</tspan></text><path d="M7,14A2,2 0 0,1 5,12A2,2 0 0,1 7,10A2,2 0 0,1 9,12A2,2 0 0,1 7,14M12.65,10C11.83,7.67 9.61,6 7, 6A6, 6 0 0, 0 1, 12A6, 6 0 0, 0 7, 18C9.61, 18 11.83, 16.33 12.65, 14H17V18H21V14H23V10H12.65Z" class="i pk" transform="translate(76.33000076293945, 48) scale(0.65)"></path><text x="13" y="86" class="tf pk">emp_no<tspan x="154.13" class="ty">INT</tspan></text><path d="M7,14A2,2 0 0,1 5,12A2,2 0 0,1 7,10A2,2 0 0,1 9,12A2,2 0 0,1 7,14M12.65,10C11.83,7.67 9.61,6 7, 6A6, 6 0 0, 0 1, 12A6, 6 0 0, 0 7, 18C9.61, 18 11.83, 16.33 12.65, 14H17V18H21V14H23V10H12.65Z" class="i pk" transform="translate(114.79666603088378, 73) scale(0.65)"></path></svg><svg width="128.67" height="100" x="951" y="27" id="h2472833127" class="t"><rect height="40" width="128.67" class="th"></rect><text x="13" y="25" class="tht">salaries</text><rect height="60" width="128.67" class="t-bg" y="40"></rect><text x="13" y="61" class="tf pk">emp_no<tspan x="115.66999999999999" class="ty">INT</tspan></text><path d="M7,14A2,2 0 0,1 5,12A2,2 0 0,1 7,10A2,2 0 0,1 9,12A2,2 0 0,1 7,14M12.65,10C11.83,7.67 9.61,6 7, 6A6, 6 0 0, 0 1, 12A6, 6 0 0, 0 7, 18C9.61, 18 11.83, 16.33 12.65, 14H17V18H21V14H23V10H12.65Z" class="i pk" transform="translate(76.33666603088378, 48) scale(0.65)"></path><text x="13" y="86" class="tf">salary<tspan x="115.66999999999999" class="ty">INT</tspan></text></svg><svg width="158.47" height="100" x="860" y="307" id="h311790747" class="t"><rect height="40" width="158.47" class="th"></rect><text x="13" y="25" class="tht">titles</text><rect height="60" width="158.47" class="t-bg" y="40"></rect><text x="13" y="61" class="tf pk">title_id<tspan x="145.47" class="ty">VARCHAR</tspan></text><path d="M7,14A2,2 0 0,1 5,12A2,2 0 0,1 7,10A2,2 0 0,1 9,12A2,2 0 0,1 7,14M12.65,10C11.83,7.67 9.61,6 7, 6A6, 6 0 0, 0 1, 12A6, 6 0 0, 0 7, 18C9.61, 18 11.83, 16.33 12.65, 14H17V18H21V14H23V10H12.65Z" class="i pk" transform="translate(67.67000076293945, 48) scale(0.65)"></path><text x="13" y="86" class="tf">title<tspan x="145.47" class="ty">VARCHAR</tspan></text></svg></g></g><text class="qdbd-link" x="10" y="20">www.quickdatabasediagrams.com</text></svg>